# xmcd
#
# Track frame offsets: 
#        150
#        15615
#        36106
#        82660
#        115526
#        153498
#        175904
#        205639
#        228650
#        270301
#
# Disc length: 3992 seconds
#
# Revision: 0
# Processed by: cddbd v1.5.2PL0 Copyright (c) Steve Scherf et al.
# Submitted via: ExactAudioCopy v0.95b4
#
DISCID=6b0f960a
DTITLE=Chris Duarte Group - Live D2
DYEAR=2013
DGENRE=Blues
TTITLE0=The Best I Can Do
TTITLE1=Satisfy
TTITLE2=People Say
TTITLE3=Hold Back The Tears
TTITLE4=Sundown Blues
TTITLE5=My Way Down
TTITLE6=Cleopatra
TTITLE7=Like Eric
TTITLE8=Hard Mind
TTITLE9=Alabama
EXTD=
EXTT0=
EXTT1=
EXTT2=
EXTT3=
EXTT4=
EXTT5=
EXTT6=
EXTT7=
EXTT8=
EXTT9=
PLAYORDER=
